# xmcd CD database file
#
# Track frame offsets:
#	150
#	20662
#	37392
#	59817
#	82337
#	97672
#	119165
#	145580
#	171112
#	193877
#
# Disc length: 2889 seconds
#
# Revision: 0
# Processed by: cddbd v1.4PL0 Copyright (c) Steve Scherf et al.
# Submitted via: CDex 1.50Beta5
#
DISCID=990b470a
DTITLE=Jimmy Hamilton - Rediscovered at the Buccaneer
DYEAR=1985
DGENRE=Jazz
TTITLE0=Stranger On The Shore
TTITLE1=Misty
TTITLE2=Shadow Of Your Smile
TTITLE3=As Time Goes By
TTITLE4=Departing Lovers
TTITLE5=Don't Get Around Much Anymore
TTITLE6=Warm Valley
TTITLE7="C" Jam Blues
TTITLE8=Happy Go Lucky Local
TTITLE9=Satin Doll
EXTD=YEAR: 1985
EXTT0=
EXTT1=
EXTT2=
EXTT3=
EXTT4=
EXTT5=
EXTT6=
EXTT7=
EXTT8=
EXTT9=
PLAYORDER=
